<svg width="44" height="45" viewBox="0 0 44 45" fill="none" xmlns="http://www.w3.org/2000/svg">
<path fill-rule="evenodd" clip-rule="evenodd" d="M22.1064 2.14667L39.6933 12.4084V32.9282L22.1064 43.1844L4.51953 32.9282V12.4084L22.1064 2.14667ZM6.90286 13.7771V31.5591L22.1064 40.4254L37.3099 31.5591V13.7771L22.1064 4.90605L6.90286 13.7771Z" fill="#F00A0A"/>
<path fill-rule="evenodd" clip-rule="evenodd" d="M28.363 14.8886C28.7536 14.4981 29.3867 14.4982 29.7772 14.8888C31.8394 16.9516 32.9979 19.749 32.9979 22.6658C32.9979 25.5826 31.8394 28.38 29.7772 30.4428C29.3867 30.8334 28.7536 30.8335 28.363 30.443C27.9724 30.0525 27.9723 29.4194 28.3628 29.0288C30.05 27.341 30.9979 25.0523 30.9979 22.6658C30.9979 20.2793 30.05 17.9905 28.3628 16.3028C27.9723 15.9122 27.9724 15.279 28.363 14.8886ZM21.4332 14.7645C21.7797 14.931 22 15.2814 22 15.6658V29.6658C22 30.0502 21.7797 30.4006 21.4332 30.5671C21.0867 30.7336 20.6755 30.6868 20.3753 30.4467L15.6492 26.6658H12C11.4477 26.6658 11 26.2181 11 25.6658V19.6658C11 19.1135 11.4477 18.6658 12 18.6658H15.6492L20.3753 14.8849C20.6755 14.6448 21.0867 14.598 21.4332 14.7645ZM20 17.7464L16.6247 20.4467C16.4474 20.5885 16.2271 20.6658 16 20.6658H13V24.6658H16C16.2271 24.6658 16.4474 24.7431 16.6247 24.8849L20 27.5852V17.7464ZM24.833 18.4186C25.2236 18.0281 25.8567 18.0282 26.2472 18.4188C27.372 19.544 28.0039 21.0698 28.0039 22.6608C28.0039 24.2518 27.372 25.7776 26.2472 26.9028C25.8567 27.2934 25.2236 27.2935 24.833 26.903C24.4424 26.5125 24.4423 25.8794 24.8328 25.4888C25.5827 24.7387 26.0039 23.7215 26.0039 22.6608C26.0039 21.6001 25.5827 20.5829 24.8328 19.8328C24.4423 19.4422 24.4424 18.809 24.833 18.4186Z" fill="#F00A0A"/>
</svg>
