<svg width="52" height="130" viewBox="0 0 52 130" fill="none" xmlns="http://www.w3.org/2000/svg">
<g clip-path="url(#clip0_519_1117)">
<path fill-rule="evenodd" clip-rule="evenodd" d="M28.3319 110.157V123.385L40.166 130L52 123.385V110.157L40.166 103.542L28.3319 110.157Z" fill="#E31F1B"/>
<path fill-rule="evenodd" clip-rule="evenodd" d="M28.3319 110.157V123.385L40.166 130L52 123.385V110.157L40.166 103.542L28.3319 110.157Z" fill="#F00A0A"/>
<path fill-rule="evenodd" clip-rule="evenodd" d="M28.7798 72.4309C24.4844 75.5315 20.7788 76.125 16.2413 75.2781C12.4816 74.5761 10.1656 73.2641 7.86888 72.0581L0 88.551C8.83013 94.8128 18.9132 96.0858 28.7798 93.1625V72.4309Z" fill="white"/>
<path fill-rule="evenodd" clip-rule="evenodd" d="M28.7798 93.1622C41.8998 89.934 51.5527 76.8828 51.5527 64.3429V0H28.7798V51.4781V59.4436V92.0511V93.1622Z" fill="#F00A0A"/>
</g>
<defs>
<clipPath id="clip0_519_1117">
<rect width="52" height="130" fill="white"/>
</clipPath>
</defs>
</svg>
