<svg width="96" height="96" viewBox="0 0 96 96" fill="none" xmlns="http://www.w3.org/2000/svg">
<rect width="96" height="96" fill="white"/>
<path d="M68.4876 30.6608H57.328C57.328 28.3675 55.5517 26.357 52.8897 25.2347L59.7471 14.6027C59.9039 14.6287 60.0641 14.6461 60.2278 14.6461C61.8422 14.6461 63.1516 13.3277 63.1516 11.7023C63.1516 10.0769 61.8422 8.7585 60.2278 8.7585C58.6134 8.7585 57.3039 10.0769 57.3039 11.7023C57.3039 12.3025 57.4831 12.8611 57.7898 13.326L50.5603 24.5339C49.7471 24.376 48.8873 24.2893 48 24.2893C47.1127 24.2893 46.2529 24.376 45.4397 24.5339L32.4383 4.37665C32.7209 3.9343 32.8863 3.40868 32.8863 2.84491C32.8863 1.27327 31.6216 0 30.0606 0C28.4997 0 27.235 1.27327 27.235 2.84491C27.235 4.41654 28.4997 5.68981 30.0606 5.68981C30.2037 5.68981 30.3449 5.67594 30.4828 5.65512L43.1103 25.2347C40.4466 26.357 38.6719 28.3658 38.6719 30.6608H27.5124C16.7354 30.6608 8 39.4557 8 50.3063V71.9154C8 81.0677 14.2164 88.7576 22.6296 90.9399C22.5417 92.5393 22.4969 95.9983 23.7736 95.9983C24.9021 95.9983 26.7698 93.2921 27.8501 91.5592H68.1499C69.2302 93.2921 71.0996 95.9983 72.2264 95.9983C73.5014 95.9983 73.4583 92.5393 73.3704 90.9399C81.7836 88.7576 88 81.0677 88 71.9154V50.3063C88 39.4557 79.2646 30.6608 68.4876 30.6608ZM64.5076 80.0841H21.2839C19.1664 80.0841 17.4504 78.3564 17.4504 76.2244V46.0216C17.4504 43.8896 19.1664 42.1619 21.2839 42.1619H64.5076C66.6251 42.1619 68.3411 43.8896 68.3411 46.0216V76.2244C68.3411 78.3564 66.6251 80.0841 64.5076 80.0841ZM76.4976 73.2286C73.9924 73.2286 71.9611 71.1834 71.9611 68.6611C71.9611 66.1389 73.9924 64.0937 76.4976 64.0937C79.0028 64.0937 81.0341 66.1389 81.0341 68.6611C81.0341 71.1834 79.0028 73.2286 76.4976 73.2286ZM76.4976 55.5364C73.9924 55.5364 71.9611 53.4912 71.9611 50.9689C71.9611 48.4467 73.9924 46.4015 76.4976 46.4015C79.0028 46.4015 81.0341 48.4467 81.0341 50.9689C81.0341 53.4912 79.0028 55.5364 76.4976 55.5364Z" fill="#F00A0A"/>
</svg>
