<svg width="348" height="31" viewBox="0 0 348 31" fill="none" xmlns="http://www.w3.org/2000/svg">
<path fill-rule="evenodd" clip-rule="evenodd" d="M22.4703 0L15.4878 19.3591H20.7705L21.7671 16.0495H28.8241L29.9426 19.3591H35.1574L28.1749 0H22.4703ZM25.2976 4.56377L27.4431 11.9036H23.1735L25.2976 4.56377Z" fill="white"/>
<path fill-rule="evenodd" clip-rule="evenodd" d="M65.6101 0L58.6268 19.3591H63.9103L64.9078 16.0495H71.9639L73.0815 19.3591H78.2972L71.3147 0H65.6101ZM68.4374 4.56377L70.5829 11.9036H66.3124L68.4374 4.56377Z" fill="white"/>
<path fill-rule="evenodd" clip-rule="evenodd" d="M103.196 0L96.214 19.3591H101.497L102.494 16.0495H109.55L110.669 19.3591H115.884L108.901 0H103.196ZM106.024 4.56377L108.169 11.9036H103.9L106.024 4.56377Z" fill="white"/>
<path fill-rule="evenodd" clip-rule="evenodd" d="M50.2895 0.0103455L43.9594 9.04021V0.0103455H38.7651V19.3596H43.9594V9.9899L50.3426 19.3596H56.698L49.5201 9.49905L56.4331 0.0103455H50.2895Z" fill="white"/>
<path fill-rule="evenodd" clip-rule="evenodd" d="M81.9419 0.0103455V19.3842H93.073V15.235H87.1134V0.0103455H81.9419Z" fill="white"/>
<path fill-rule="evenodd" clip-rule="evenodd" d="M6.51385 25.7769V28.8722L9.23491 30.4194L11.956 28.8722V25.7769L9.23491 24.2288L6.51385 25.7769Z" fill="#E31F1B"/>
<path fill-rule="evenodd" clip-rule="evenodd" d="M6.51385 25.7769V28.8722L9.23491 30.4194L11.956 28.8722V25.7769L9.23491 24.2288L6.51385 25.7769Z" fill="#F00A0A"/>
<path fill-rule="evenodd" clip-rule="evenodd" d="M6.61703 16.9487C5.62934 17.6743 4.77738 17.813 3.73409 17.6152C2.86986 17.4502 2.33759 17.144 1.8094 16.8617L0 20.7212C2.03016 22.1863 4.34894 22.4843 6.61703 21.7997V16.9487Z" fill="white"/>
<mask id="mask0_595_330" style="mask-type:luminance" maskUnits="userSpaceOnUse" x="6" y="0" width="6" height="22">
<path d="M6.617 0.000152588H11.8531V21.7998H6.617V0.000152588Z" fill="#F00A0A"/>
</mask>
<g mask="url(#mask0_595_330)">
<path fill-rule="evenodd" clip-rule="evenodd" d="M6.617 21.7998C9.63322 21.0447 11.8531 17.9904 11.8531 15.0559V-0.000396729H6.617V12.046V13.9101V21.5396V21.7998Z" fill="#F00A0A"/>
</g>
<path fill-rule="evenodd" clip-rule="evenodd" d="M140.884 16L134.384 12.51L134.384 5.4881L140.884 2L147.384 5.4881L147.384 12.51L140.884 16Z" fill="#F00A0A"/>
<path d="M345.569 3.74291C345.027 3.12813 344.304 2.63089 343.4 2.25117C342.495 1.87145 341.465 1.6816 340.308 1.6816C338.608 1.6816 337.369 2.00707 336.592 2.65801C335.814 3.29087 335.426 4.15879 335.426 5.26177C335.426 5.84039 335.525 6.31955 335.724 6.69927C335.941 7.0609 336.266 7.37733 336.7 7.64856C337.134 7.91978 337.686 8.15484 338.355 8.35374C339.042 8.55264 339.847 8.75154 340.769 8.95044C341.799 9.16742 342.721 9.41152 343.535 9.68275C344.367 9.95397 345.072 10.2975 345.651 10.7134C346.229 11.1112 346.672 11.5994 346.98 12.178C347.287 12.7566 347.441 13.4799 347.441 14.3478C347.441 15.2338 347.269 16.0023 346.925 16.6532C346.582 17.3042 346.103 17.8466 345.488 18.2806C344.873 18.7146 344.141 19.04 343.291 19.257C342.441 19.4559 341.51 19.5553 340.497 19.5553C337.514 19.5553 334.937 18.6241 332.768 16.7617L333.717 15.2157C334.06 15.5774 334.467 15.9209 334.937 16.2464C335.426 16.5719 335.959 16.8612 336.538 17.1143C337.134 17.3494 337.767 17.5392 338.436 17.6839C339.105 17.8105 339.81 17.8738 340.552 17.8738C342.089 17.8738 343.282 17.6025 344.132 17.0601C345 16.4995 345.434 15.6587 345.434 14.5377C345.434 13.941 345.307 13.4437 345.054 13.0459C344.819 12.6301 344.457 12.2775 343.969 11.9882C343.481 11.6808 342.875 11.4186 342.152 11.2016C341.429 10.9846 340.588 10.7676 339.63 10.5507C338.617 10.3156 337.731 10.0715 336.972 9.81836C336.212 9.56522 335.57 9.24879 335.046 8.86907C334.521 8.48935 334.124 8.03731 333.852 7.51294C333.599 6.97049 333.473 6.31051 333.473 5.533C333.473 4.64699 333.635 3.86044 333.961 3.17334C334.304 2.46815 334.784 1.88954 335.398 1.43749C336.013 0.96737 336.736 0.614778 337.568 0.379715C338.4 0.126572 339.322 0 340.335 0C341.619 0 342.758 0.198899 343.752 0.596696C344.765 0.976411 345.678 1.51886 346.492 2.22405L345.569 3.74291Z" fill="white"/>
<path d="M331.429 1.81719H324.567V19.3926H322.668V1.81719H315.806V0.13559H331.429V1.81719Z" fill="white"/>
<path d="M312.924 0.13559V19.3926H311.052V10.3879H299.634V19.3926H297.735V0.13559H299.634V8.70631H311.052V0.13559H312.924Z" fill="white"/>
<path d="M292.234 16.5719C290.444 18.5428 288.383 19.5282 286.05 19.5282C284.748 19.5282 283.546 19.248 282.443 18.6874C281.358 18.1269 280.409 17.3855 279.595 16.4634C278.799 15.5412 278.176 14.5015 277.724 13.3443C277.272 12.169 277.046 10.9665 277.046 9.73699C277.046 8.45319 277.263 7.22364 277.696 6.04833C278.149 4.87302 278.772 3.84236 279.568 2.95636C280.364 2.05227 281.304 1.33805 282.389 0.813675C283.474 0.271225 284.658 0 285.942 0C286.882 0 287.741 0.10849 288.518 0.325471C289.296 0.524369 289.983 0.813676 290.58 1.19339C291.194 1.55503 291.719 1.99803 292.153 2.5224C292.605 3.02868 292.985 3.58922 293.292 4.20399L291.827 5.1804C291.194 3.98701 290.372 3.11005 289.359 2.54952C288.347 1.98899 287.198 1.70872 285.915 1.70872C284.848 1.70872 283.88 1.93474 283.012 2.38678C282.163 2.83882 281.43 3.44456 280.816 4.20399C280.219 4.94534 279.758 5.80422 279.432 6.78063C279.107 7.73896 278.944 8.73346 278.944 9.76411C278.944 10.849 279.125 11.8797 279.487 12.8561C279.866 13.8325 280.382 14.6914 281.033 15.4327C281.683 16.156 282.443 16.7346 283.311 17.1686C284.197 17.6025 285.155 17.8195 286.186 17.8195C287.289 17.8195 288.338 17.5664 289.332 17.0601C290.345 16.5357 291.312 15.713 292.234 14.5919V11.3915H287.949V9.92685H293.834V19.3926H292.234V16.5719Z" fill="white"/>
<path d="M271.593 19.3926V0.13559H273.491V19.3926H271.593Z" fill="white"/>
<path d="M266.374 3.74291C265.831 3.12813 265.108 2.63089 264.204 2.25117C263.3 1.87145 262.269 1.6816 261.112 1.6816C259.412 1.6816 258.174 2.00707 257.396 2.65801C256.619 3.29087 256.23 4.15879 256.23 5.26177C256.23 5.84039 256.329 6.31955 256.528 6.69927C256.745 7.0609 257.071 7.37733 257.505 7.64856C257.939 7.91978 258.49 8.15484 259.159 8.35374C259.846 8.55264 260.651 8.75154 261.573 8.95044C262.604 9.16742 263.526 9.41152 264.339 9.68275C265.171 9.95397 265.876 10.2975 266.455 10.7134C267.034 11.1112 267.477 11.5994 267.784 12.178C268.091 12.7566 268.245 13.4799 268.245 14.3478C268.245 15.2338 268.073 16.0023 267.73 16.6532C267.386 17.3042 266.907 17.8466 266.292 18.2806C265.678 18.7146 264.945 19.04 264.095 19.257C263.246 19.4559 262.314 19.5553 261.302 19.5553C258.318 19.5553 255.742 18.6241 253.572 16.7617L254.521 15.2157C254.865 15.5774 255.272 15.9209 255.742 16.2464C256.23 16.5719 256.763 16.8612 257.342 17.1143C257.939 17.3494 258.571 17.5392 259.24 17.6839C259.909 17.8105 260.615 17.8738 261.356 17.8738C262.893 17.8738 264.086 17.6025 264.936 17.0601C265.804 16.4995 266.238 15.6587 266.238 14.5377C266.238 13.941 266.111 13.4437 265.858 13.0459C265.623 12.6301 265.262 12.2775 264.773 11.9882C264.285 11.6808 263.68 11.4186 262.956 11.2016C262.233 10.9846 261.392 10.7676 260.434 10.5507C259.421 10.3156 258.535 10.0715 257.776 9.81836C257.016 9.56522 256.374 9.24879 255.85 8.86907C255.326 8.48935 254.928 8.03731 254.657 7.51294C254.404 6.97049 254.277 6.31051 254.277 5.533C254.277 4.64699 254.44 3.86044 254.765 3.17334C255.109 2.46815 255.588 1.88954 256.203 1.43749C256.818 0.96737 257.541 0.614778 258.373 0.379715C259.204 0.126572 260.126 0 261.139 0C262.423 0 263.562 0.198899 264.556 0.596696C265.569 0.976411 266.482 1.51886 267.296 2.22405L266.374 3.74291Z" fill="white"/>
<path d="M236.065 3.66152V19.3926H234.167V0.13559H235.631L248.379 16.165V0.162712H250.277V19.3926H248.623L236.065 3.66152Z" fill="white"/>
<path d="M227.439 19.3926V0.13559H229.338V19.3926H227.439Z" fill="white"/>
<path d="M214.828 19.5282C213.49 19.5282 212.26 19.257 211.139 18.7146C210.036 18.154 209.087 17.4217 208.291 16.5176C207.496 15.5955 206.881 14.5467 206.447 13.3714C206.013 12.1961 205.796 10.9937 205.796 9.76411C205.796 8.48031 206.022 7.25076 206.474 6.07545C206.944 4.90014 207.586 3.86044 208.4 2.95636C209.213 2.05227 210.172 1.33805 211.275 0.813675C212.378 0.271225 213.571 0 214.855 0C216.193 0 217.413 0.289307 218.516 0.867921C219.637 1.42845 220.587 2.1698 221.364 3.09197C222.16 4.01414 222.775 5.06287 223.209 6.23818C223.643 7.39541 223.86 8.57976 223.86 9.79124C223.86 11.075 223.624 12.3046 223.154 13.4799C222.702 14.6552 222.069 15.6949 221.256 16.599C220.46 17.485 219.511 18.1992 218.408 18.7417C217.305 19.266 216.112 19.5282 214.828 19.5282ZM207.694 9.76411C207.694 10.8129 207.866 11.8254 208.21 12.8018C208.553 13.7602 209.042 14.619 209.674 15.3785C210.307 16.1198 211.058 16.7165 211.926 17.1686C212.794 17.6025 213.761 17.8195 214.828 17.8195C215.913 17.8195 216.898 17.5844 217.784 17.1143C218.67 16.6442 219.42 16.0294 220.035 15.27C220.65 14.5106 221.12 13.6517 221.446 12.6933C221.789 11.735 221.961 10.7586 221.961 9.76411C221.961 8.71537 221.78 7.71184 221.418 6.75351C221.075 5.7771 220.587 4.91822 219.954 4.17687C219.321 3.43552 218.571 2.84787 217.703 2.41391C216.835 1.96186 215.876 1.73584 214.828 1.73584C213.743 1.73584 212.757 1.9709 211.871 2.44103C210.985 2.89307 210.235 3.49881 209.62 4.25824C209.005 5.01767 208.526 5.87655 208.183 6.83488C207.857 7.79321 207.694 8.76962 207.694 9.76411Z" fill="white"/>
<path d="M190.675 19.3926V0.162712H192.574V11.3372L203.179 0.13559H205.267L197.402 8.59782L205.674 19.3926H203.586L196.208 9.70984L192.574 13.4799V19.3926H190.675Z" fill="white"/>
<path d="M183.948 19.3926V0.13559H185.846V19.3926H183.948Z" fill="white"/>
<path d="M180.367 14.4292C180.367 15.1524 180.222 15.8215 179.933 16.4362C179.644 17.0329 179.255 17.5573 178.767 18.0093C178.279 18.4433 177.709 18.7869 177.058 19.04C176.407 19.2751 175.711 19.3926 174.97 19.3926H165.884V0.13559H175.159C175.828 0.13559 176.434 0.280243 176.977 0.569551C177.519 0.858858 177.98 1.23857 178.36 1.7087C178.74 2.16074 179.029 2.68511 179.228 3.2818C179.445 3.86042 179.553 4.44807 179.553 5.04477C179.553 6.02118 179.309 6.91622 178.821 7.7299C178.333 8.5255 177.655 9.12219 176.787 9.51999C177.89 9.84546 178.758 10.4512 179.391 11.3372C180.042 12.2232 180.367 13.2539 180.367 14.4292ZM178.468 14.1037C178.468 13.6336 178.387 13.1815 178.224 12.7476C178.062 12.2955 177.827 11.9068 177.519 11.5813C177.23 11.2377 176.877 10.9665 176.461 10.7676C176.064 10.5506 175.63 10.4422 175.159 10.4422H167.782V17.7381H174.97C175.458 17.7381 175.91 17.6387 176.326 17.4398C176.76 17.2409 177.13 16.9787 177.438 16.6532C177.763 16.3097 178.016 15.9209 178.197 15.4869C178.378 15.0349 178.468 14.5738 178.468 14.1037ZM167.782 1.79006V8.89617H174.4C174.87 8.89617 175.304 8.79672 175.702 8.59782C176.118 8.39892 176.47 8.13674 176.76 7.81127C177.049 7.4858 177.275 7.11512 177.438 6.69924C177.6 6.26528 177.682 5.81324 177.682 5.34312C177.682 4.85491 177.6 4.39383 177.438 3.95987C177.293 3.52591 177.076 3.15523 176.787 2.84784C176.516 2.52237 176.19 2.26923 175.81 2.08841C175.431 1.88951 175.015 1.79006 174.563 1.79006H167.782Z" fill="white"/>
</svg>
