<svg width="341" height="31" viewBox="0 0 341 31" fill="none" xmlns="http://www.w3.org/2000/svg">
<path fill-rule="evenodd" clip-rule="evenodd" d="M23.2498 0L16.2673 19.3591H21.55L22.5467 16.0495H29.6036L30.7221 19.3591H35.9369L28.9544 0H23.2498ZM26.0772 4.56377L28.2226 11.9036H23.953L26.0772 4.56377Z" fill="white"/>
<path fill-rule="evenodd" clip-rule="evenodd" d="M66.3897 0L59.4064 19.3591H64.6899L65.6874 16.0495H72.7435L73.8611 19.3591H79.0768L72.0943 0H66.3897ZM69.217 4.56377L71.3625 11.9036H67.092L69.217 4.56377Z" fill="white"/>
<path fill-rule="evenodd" clip-rule="evenodd" d="M103.976 0L96.9935 19.3591H102.276L103.274 16.0495H110.33L111.448 19.3591H116.663L109.681 0H103.976ZM106.803 4.56377L108.949 11.9036H104.679L106.803 4.56377Z" fill="white"/>
<path fill-rule="evenodd" clip-rule="evenodd" d="M51.0691 0.0103455L44.739 9.04021V0.0103455H39.5447V19.3596H44.739V9.9899L51.1222 19.3596H57.4776L50.2997 9.49905L57.2127 0.0103455H51.0691Z" fill="white"/>
<path fill-rule="evenodd" clip-rule="evenodd" d="M82.7214 0.0103455V19.3842H93.8526V15.235H87.8929V0.0103455H82.7214Z" fill="white"/>
<path fill-rule="evenodd" clip-rule="evenodd" d="M7.29333 25.7769V28.8722L10.0144 30.4194L12.7354 28.8722V25.7769L10.0144 24.2288L7.29333 25.7769Z" fill="#E31F1B"/>
<path fill-rule="evenodd" clip-rule="evenodd" d="M7.29333 25.7769V28.8722L10.0144 30.4194L12.7354 28.8722V25.7769L10.0144 24.2288L7.29333 25.7769Z" fill="#F00A0A"/>
<path fill-rule="evenodd" clip-rule="evenodd" d="M7.39657 16.9487C6.40888 17.6743 5.55692 17.813 4.51363 17.6152C3.6494 17.4502 3.11713 17.144 2.58894 16.8617L0.779541 20.7212C2.8097 22.1863 5.12848 22.4843 7.39657 21.7997V16.9487Z" fill="white"/>
<mask id="mask0_596_1772" style="mask-type:luminance" maskUnits="userSpaceOnUse" x="7" y="0" width="6" height="22">
<path d="M7.39661 0.000152588H12.6327V21.7998H7.39661V0.000152588Z" fill="#F00A0A"/>
</mask>
<g mask="url(#mask0_596_1772)">
<path fill-rule="evenodd" clip-rule="evenodd" d="M7.39661 21.7998C10.4128 21.0447 12.6327 17.9904 12.6327 15.0559V-0.000396729H7.39661V12.046V13.9101V21.5396V21.7998Z" fill="#F00A0A"/>
</g>
<path fill-rule="evenodd" clip-rule="evenodd" d="M137.663 16L131.163 12.51L131.163 5.4881L137.663 2L144.163 5.4881L144.163 12.51L137.663 16Z" fill="#F00A0A"/>
<path d="M338.349 3.74291C337.806 3.12813 337.083 2.63089 336.179 2.25117C335.275 1.87145 334.244 1.6816 333.087 1.6816C331.387 1.6816 330.149 2.00707 329.371 2.65801C328.594 3.29087 328.205 4.15879 328.205 5.26177C328.205 5.84039 328.305 6.31955 328.503 6.69927C328.72 7.0609 329.046 7.37733 329.48 7.64856C329.914 7.91978 330.465 8.15484 331.134 8.35374C331.821 8.55264 332.626 8.75154 333.548 8.95044C334.579 9.16742 335.501 9.41152 336.315 9.68275C337.146 9.95397 337.852 10.2975 338.43 10.7134C339.009 11.1112 339.452 11.5994 339.759 12.178C340.067 12.7566 340.22 13.4799 340.22 14.3478C340.22 15.2338 340.049 16.0023 339.705 16.6532C339.361 17.3042 338.882 17.8466 338.268 18.2806C337.653 18.7146 336.92 19.04 336.071 19.257C335.221 19.4559 334.29 19.5553 333.277 19.5553C330.293 19.5553 327.717 18.6241 325.547 16.7617L326.496 15.2157C326.84 15.5774 327.247 15.9209 327.717 16.2464C328.205 16.5719 328.738 16.8612 329.317 17.1143C329.914 17.3494 330.547 17.5392 331.216 17.6839C331.885 17.8105 332.59 17.8738 333.331 17.8738C334.868 17.8738 336.062 17.6025 336.911 17.0601C337.779 16.4995 338.213 15.6587 338.213 14.5377C338.213 13.941 338.087 13.4437 337.834 13.0459C337.598 12.6301 337.237 12.2775 336.749 11.9882C336.26 11.6808 335.655 11.4186 334.931 11.2016C334.208 10.9846 333.367 10.7676 332.409 10.5507C331.396 10.3156 330.51 10.0715 329.751 9.81836C328.992 9.56522 328.35 9.24879 327.825 8.86907C327.301 8.48935 326.903 8.03731 326.632 7.51294C326.379 6.97049 326.252 6.31051 326.252 5.533C326.252 4.64699 326.415 3.86044 326.74 3.17334C327.084 2.46815 327.563 1.88954 328.178 1.43749C328.793 0.96737 329.516 0.614778 330.348 0.379715C331.18 0.126572 332.102 0 333.114 0C334.398 0 335.537 0.198899 336.532 0.596696C337.544 0.976411 338.457 1.51886 339.271 2.22405L338.349 3.74291Z" fill="white"/>
<path d="M324.208 1.81719H317.346V19.3926H315.448V1.81719H308.586V0.13559H324.208V1.81719Z" fill="white"/>
<path d="M305.703 0.13559V19.3926H303.832V10.3879H292.413V19.3926H290.515V0.13559H292.413V8.70631H303.832V0.13559H305.703Z" fill="white"/>
<path d="M285.014 16.5719C283.224 18.5428 281.162 19.5282 278.83 19.5282C277.528 19.5282 276.325 19.248 275.222 18.6874C274.138 18.1269 273.188 17.3855 272.375 16.4634C271.579 15.5412 270.955 14.5015 270.503 13.3443C270.051 12.169 269.825 10.9665 269.825 9.73699C269.825 8.45319 270.042 7.22364 270.476 6.04833C270.928 4.87302 271.552 3.84236 272.347 2.95636C273.143 2.05227 274.083 1.33805 275.168 0.813675C276.253 0.271225 277.437 0 278.721 0C279.662 0 280.52 0.10849 281.298 0.325471C282.075 0.524369 282.763 0.813676 283.359 1.19339C283.974 1.55503 284.498 1.99803 284.932 2.5224C285.384 3.02868 285.764 3.58922 286.071 4.20399L284.607 5.1804C283.974 3.98701 283.151 3.11005 282.139 2.54952C281.126 1.98899 279.978 1.70872 278.694 1.70872C277.627 1.70872 276.66 1.93474 275.792 2.38678C274.942 2.83882 274.21 3.44456 273.595 4.20399C272.998 4.94534 272.537 5.80422 272.212 6.78063C271.886 7.73896 271.724 8.73346 271.724 9.76411C271.724 10.849 271.904 11.8797 272.266 12.8561C272.646 13.8325 273.161 14.6914 273.812 15.4327C274.463 16.156 275.222 16.7346 276.09 17.1686C276.976 17.6025 277.935 17.8195 278.965 17.8195C280.068 17.8195 281.117 17.5664 282.112 17.0601C283.124 16.5357 284.092 15.713 285.014 14.5919V11.3915H280.728V9.92685H286.614V19.3926H285.014V16.5719Z" fill="white"/>
<path d="M264.372 19.3926V0.13559H266.271V19.3926H264.372Z" fill="white"/>
<path d="M259.153 3.74291C258.611 3.12813 257.888 2.63089 256.983 2.25117C256.079 1.87145 255.049 1.6816 253.892 1.6816C252.192 1.6816 250.953 2.00707 250.176 2.65801C249.398 3.29087 249.009 4.15879 249.009 5.26177C249.009 5.84039 249.109 6.31955 249.308 6.69927C249.525 7.0609 249.85 7.37733 250.284 7.64856C250.718 7.91978 251.27 8.15484 251.939 8.35374C252.626 8.55264 253.43 8.75154 254.353 8.95044C255.383 9.16742 256.305 9.41152 257.119 9.68275C257.951 9.95397 258.656 10.2975 259.235 10.7134C259.813 11.1112 260.256 11.5994 260.564 12.178C260.871 12.7566 261.025 13.4799 261.025 14.3478C261.025 15.2338 260.853 16.0023 260.509 16.6532C260.166 17.3042 259.687 17.8466 259.072 18.2806C258.457 18.7146 257.725 19.04 256.875 19.257C256.025 19.4559 255.094 19.5553 254.081 19.5553C251.098 19.5553 248.521 18.6241 246.351 16.7617L247.301 15.2157C247.644 15.5774 248.051 15.9209 248.521 16.2464C249.009 16.5719 249.543 16.8612 250.121 17.1143C250.718 17.3494 251.351 17.5392 252.02 17.6839C252.689 17.8105 253.394 17.8738 254.136 17.8738C255.673 17.8738 256.866 17.6025 257.716 17.0601C258.584 16.4995 259.018 15.6587 259.018 14.5377C259.018 13.941 258.891 13.4437 258.638 13.0459C258.403 12.6301 258.041 12.2775 257.553 11.9882C257.065 11.6808 256.459 11.4186 255.736 11.2016C255.013 10.9846 254.172 10.7676 253.213 10.5507C252.201 10.3156 251.315 10.0715 250.555 9.81836C249.796 9.56522 249.154 9.24879 248.63 8.86907C248.105 8.48935 247.708 8.03731 247.436 7.51294C247.183 6.97049 247.057 6.31051 247.057 5.533C247.057 4.64699 247.219 3.86044 247.545 3.17334C247.888 2.46815 248.368 1.88954 248.982 1.43749C249.597 0.96737 250.32 0.614778 251.152 0.379715C251.984 0.126572 252.906 0 253.919 0C255.202 0 256.342 0.198899 257.336 0.596696C258.349 0.976411 259.262 1.51886 260.075 2.22405L259.153 3.74291Z" fill="white"/>
<path d="M228.845 3.66152V19.3926H226.946V0.13559H228.411L241.158 16.165V0.162712H243.057V19.3926H241.402L228.845 3.66152Z" fill="white"/>
<path d="M220.219 19.3926V0.13559H222.117V19.3926H220.219Z" fill="white"/>
<path d="M207.607 19.5282C206.269 19.5282 205.04 19.257 203.919 18.7146C202.816 18.154 201.866 17.4217 201.071 16.5176C200.275 15.5955 199.66 14.5467 199.226 13.3714C198.792 12.1961 198.575 10.9937 198.575 9.76411C198.575 8.48031 198.801 7.25076 199.254 6.07545C199.724 4.90014 200.366 3.86044 201.179 2.95636C201.993 2.05227 202.951 1.33805 204.054 0.813675C205.157 0.271225 206.351 0 207.634 0C208.972 0 210.193 0.289307 211.296 0.867921C212.417 1.42845 213.366 2.1698 214.144 3.09197C214.939 4.01414 215.554 5.06287 215.988 6.23818C216.422 7.39541 216.639 8.57976 216.639 9.79124C216.639 11.075 216.404 12.3046 215.934 13.4799C215.482 14.6552 214.849 15.6949 214.035 16.599C213.24 17.485 212.29 18.1992 211.187 18.7417C210.084 19.266 208.891 19.5282 207.607 19.5282ZM200.474 9.76411C200.474 10.8129 200.646 11.8254 200.989 12.8018C201.333 13.7602 201.821 14.619 202.454 15.3785C203.087 16.1198 203.837 16.7165 204.705 17.1686C205.573 17.6025 206.54 17.8195 207.607 17.8195C208.692 17.8195 209.678 17.5844 210.564 17.1143C211.45 16.6442 212.2 16.0294 212.815 15.27C213.43 14.5106 213.9 13.6517 214.225 12.6933C214.569 11.735 214.74 10.7586 214.74 9.76411C214.74 8.71537 214.56 7.71184 214.198 6.75351C213.854 5.7771 213.366 4.91822 212.733 4.17687C212.101 3.43552 211.35 2.84787 210.482 2.41391C209.614 1.96186 208.656 1.73584 207.607 1.73584C206.522 1.73584 205.537 1.9709 204.651 2.44103C203.765 2.89307 203.014 3.49881 202.4 4.25824C201.785 5.01767 201.306 5.87655 200.962 6.83488C200.637 7.79321 200.474 8.76962 200.474 9.76411Z" fill="white"/>
<path d="M183.455 19.3926V0.162712H185.353V11.3372L195.958 0.13559H198.047L190.181 8.59782L198.454 19.3926H196.365L188.988 9.70984L185.353 13.4799V19.3926H183.455Z" fill="white"/>
<path d="M176.727 19.3926V0.13559H178.626V19.3926H176.727Z" fill="white"/>
<path d="M173.147 14.4292C173.147 15.1524 173.002 15.8215 172.713 16.4362C172.423 17.0329 172.034 17.5573 171.546 18.0093C171.058 18.4433 170.489 18.7869 169.838 19.04C169.187 19.2751 168.49 19.3926 167.749 19.3926H158.663V0.13559H167.939C168.608 0.13559 169.214 0.280243 169.756 0.569551C170.299 0.858858 170.76 1.23857 171.139 1.7087C171.519 2.16074 171.808 2.68511 172.007 3.2818C172.224 3.86042 172.333 4.44807 172.333 5.04477C172.333 6.02118 172.089 6.91622 171.601 7.7299C171.112 8.5255 170.434 9.12219 169.566 9.51999C170.669 9.84546 171.537 10.4512 172.17 11.3372C172.821 12.2232 173.147 13.2539 173.147 14.4292ZM171.248 14.1037C171.248 13.6336 171.167 13.1815 171.004 12.7476C170.841 12.2955 170.606 11.9068 170.299 11.5813C170.009 11.2377 169.657 10.9665 169.241 10.7676C168.843 10.5506 168.409 10.4422 167.939 10.4422H160.562V17.7381H167.749C168.237 17.7381 168.689 17.6387 169.105 17.4398C169.539 17.2409 169.91 16.9787 170.217 16.6532C170.543 16.3097 170.796 15.9209 170.977 15.4869C171.158 15.0349 171.248 14.5738 171.248 14.1037ZM160.562 1.79006V8.89617H167.18C167.65 8.89617 168.084 8.79672 168.481 8.59782C168.897 8.39892 169.25 8.13674 169.539 7.81127C169.829 7.4858 170.055 7.11512 170.217 6.69924C170.38 6.26528 170.461 5.81324 170.461 5.34312C170.461 4.85491 170.38 4.39383 170.217 3.95987C170.073 3.52591 169.856 3.15523 169.566 2.84784C169.295 2.52237 168.97 2.26923 168.59 2.08841C168.21 1.88951 167.794 1.79006 167.342 1.79006H160.562Z" fill="white"/>
</svg>
