<svg width="467" height="42" viewBox="0 0 467 42" fill="none" xmlns="http://www.w3.org/2000/svg">
<path fill-rule="evenodd" clip-rule="evenodd" d="M31.0246 0L21.3839 26.729H28.6777L30.0538 22.1595H39.7972L41.3416 26.729H48.5416L38.9009 0H31.0246ZM34.9283 6.30118L37.8905 16.4352H31.9955L34.9283 6.30118Z" fill="white"/>
<path fill-rule="evenodd" clip-rule="evenodd" d="M90.5877 0L80.9458 26.729H88.2407L89.6179 22.1595H99.3603L100.903 26.729H108.105L98.4639 0H90.5877ZM94.4914 6.30118L97.4536 16.4352H91.5574L94.4914 6.30118Z" fill="white"/>
<path fill-rule="evenodd" clip-rule="evenodd" d="M142.483 0L132.842 26.729H140.136L141.513 22.1595H151.256L152.8 26.729H160L150.359 0H142.483ZM146.387 6.30118L149.349 16.4352H143.454L146.387 6.30118Z" fill="white"/>
<path fill-rule="evenodd" clip-rule="evenodd" d="M69.4345 0.0142822L60.6947 12.4818V0.0142822H53.5228V26.7297H60.6947V13.793L69.5079 26.7297H78.2828L68.3723 13.1153L77.917 0.0142822H69.4345Z" fill="white"/>
<path fill-rule="evenodd" clip-rule="evenodd" d="M113.137 0.0142822V26.7637H128.506V21.0349H120.277V0.0142822H113.137Z" fill="white"/>
<path fill-rule="evenodd" clip-rule="evenodd" d="M8.99365 35.59V39.8637L12.7506 42L16.5075 39.8637V35.59L12.7506 33.4526L8.99365 35.59Z" fill="#E31F1B"/>
<path fill-rule="evenodd" clip-rule="evenodd" d="M8.99365 35.59V39.8637L12.7506 42L16.5075 39.8637V35.59L12.7506 33.4526L8.99365 35.59Z" fill="#F00A0A"/>
<path fill-rule="evenodd" clip-rule="evenodd" d="M9.13611 23.401C7.77241 24.4028 6.59611 24.5943 5.15564 24.3212C3.9624 24.0934 3.2275 23.6707 2.49823 23.2808L0 28.6096C2.80303 30.6326 6.00457 31.044 9.13611 30.0988V23.401Z" fill="white"/>
<mask id="mask0_535_71" style="mask-type:luminance" maskUnits="userSpaceOnUse" x="9" y="0" width="8" height="31">
<path d="M9.13611 0.000213623H16.3655V30.0989H9.13611V0.000213623Z" fill="#F00A0A"/>
</mask>
<g mask="url(#mask0_535_71)">
<path fill-rule="evenodd" clip-rule="evenodd" d="M9.13611 30.0989C13.3006 29.0563 16.3655 24.8392 16.3655 20.7877V-0.000579834H9.13611V16.6318V19.2056V29.7397V30.0989Z" fill="#F00A0A"/>
</g>
<path fill-rule="evenodd" clip-rule="evenodd" d="M188 22L181 18.0115L181 9.98641L188 6L195 9.9864L195 18.0115L188 22Z" fill="#F00A0A"/>
<path d="M464.092 5.16782C463.343 4.319 462.344 3.63246 461.096 3.10818C459.847 2.58391 458.424 2.32177 456.827 2.32177C454.48 2.32177 452.77 2.77115 451.696 3.6699C450.623 4.54369 450.086 5.74202 450.086 7.26491C450.086 8.0638 450.223 8.72538 450.498 9.24965C450.798 9.74896 451.247 10.1859 451.846 10.5603C452.445 10.9348 453.207 11.2594 454.13 11.534C455.079 11.8086 456.19 12.0832 457.463 12.3578C458.886 12.6574 460.16 12.9945 461.283 13.3689C462.431 13.7434 463.405 14.2178 464.204 14.792C465.003 15.3412 465.614 16.0153 466.039 16.8141C466.463 17.613 466.675 18.6116 466.675 19.81C466.675 21.0333 466.438 22.0943 465.964 22.9931C465.49 23.8918 464.828 24.6408 463.979 25.2399C463.13 25.8391 462.119 26.2885 460.946 26.5881C459.773 26.8627 458.487 27 457.089 27C452.97 27 449.412 25.7143 446.416 23.1429L447.727 21.0083C448.201 21.5076 448.763 21.982 449.412 22.4313C450.086 22.8807 450.823 23.2802 451.621 23.6297C452.445 23.9542 453.319 24.2164 454.243 24.4161C455.166 24.5908 456.14 24.6782 457.164 24.6782C459.286 24.6782 460.933 24.3037 462.107 23.5548C463.305 22.7809 463.904 21.62 463.904 20.0721C463.904 19.2483 463.73 18.5617 463.38 18.0125C463.056 17.4383 462.556 16.9515 461.882 16.552C461.208 16.1276 460.372 15.7656 459.373 15.466C458.375 15.1664 457.214 14.8669 455.89 14.5673C454.492 14.2427 453.269 13.9057 452.221 13.5562C451.172 13.2067 450.286 12.7698 449.562 12.2455C448.838 11.7212 448.289 11.0971 447.914 10.3731C447.565 9.62413 447.39 8.7129 447.39 7.63939C447.39 6.41609 447.614 5.3301 448.064 4.38141C448.538 3.40777 449.2 2.60888 450.049 1.98474C450.897 1.33564 451.896 0.848821 453.044 0.524272C454.193 0.174757 455.466 0 456.864 0C458.637 0 460.209 0.274619 461.583 0.823856C462.981 1.34813 464.241 2.09709 465.365 3.07074L464.092 5.16782Z" fill="white"/>
<path d="M444.568 2.509H435.094V26.7753H432.472V2.509H422.998V0.187225H444.568V2.509Z" fill="white"/>
<path d="M419.018 0.187225V26.7753H416.434V14.3426H400.668V26.7753H398.047V0.187225H400.668V12.0208H416.434V0.187225H419.018Z" fill="white"/>
<path d="M390.452 22.8807C387.98 25.6019 385.134 26.9626 381.914 26.9626C380.116 26.9626 378.456 26.5756 376.933 25.8017C375.435 25.0277 374.125 24.0042 373.001 22.7309C371.903 21.4577 371.041 20.0222 370.417 18.4244C369.793 16.8017 369.481 15.1415 369.481 13.4438C369.481 11.6713 369.781 9.97365 370.38 8.3509C371.004 6.72815 371.865 5.30513 372.964 4.08183C374.062 2.83356 375.36 1.84743 376.858 1.12344C378.356 0.37448 379.991 0 381.764 0C383.062 0 384.248 0.149792 385.321 0.449377C386.395 0.723995 387.344 1.12344 388.167 1.64771C389.016 2.14702 389.74 2.75867 390.339 3.48266C390.964 4.18169 391.488 4.95562 391.912 5.80444L389.89 7.15257C389.016 5.50485 387.88 4.29404 386.482 3.52011C385.084 2.74619 383.499 2.35922 381.726 2.35922C380.253 2.35922 378.918 2.67129 377.72 3.29542C376.546 3.91956 375.535 4.75589 374.686 5.80444C373.862 6.82802 373.226 8.01387 372.776 9.362C372.327 10.6852 372.102 12.0583 372.102 13.4813C372.102 14.9792 372.352 16.4022 372.851 17.7503C373.376 19.0985 374.087 20.2843 374.986 21.3079C375.885 22.3065 376.933 23.1054 378.131 23.7046C379.355 24.3037 380.678 24.6033 382.101 24.6033C383.624 24.6033 385.072 24.2538 386.445 23.5548C387.843 22.8308 389.179 21.6949 390.452 20.147V15.7282H384.535V13.706H392.661V26.7753H390.452V22.8807Z" fill="white"/>
<path d="M361.952 26.7753V0.187225H364.573V26.7753H361.952Z" fill="white"/>
<path d="M354.746 5.16782C353.997 4.319 352.999 3.63246 351.751 3.10818C350.502 2.58391 349.079 2.32177 347.481 2.32177C345.135 2.32177 343.425 2.77115 342.351 3.6699C341.278 4.54369 340.741 5.74202 340.741 7.26491C340.741 8.0638 340.878 8.72538 341.153 9.24965C341.452 9.74896 341.902 10.1859 342.501 10.5603C343.1 10.9348 343.861 11.2594 344.785 11.534C345.734 11.8086 346.845 12.0832 348.118 12.3578C349.541 12.6574 350.814 12.9945 351.938 13.3689C353.086 13.7434 354.06 14.2178 354.859 14.792C355.658 15.3412 356.269 16.0153 356.694 16.8141C357.118 17.613 357.33 18.6116 357.33 19.81C357.33 21.0333 357.093 22.0943 356.619 22.9931C356.144 23.8918 355.483 24.6408 354.634 25.2399C353.785 25.8391 352.774 26.2885 351.601 26.5881C350.427 26.8627 349.142 27 347.744 27C343.624 27 340.067 25.7143 337.071 23.1429L338.382 21.0083C338.856 21.5076 339.418 21.982 340.067 22.4313C340.741 22.8807 341.477 23.2802 342.276 23.6297C343.1 23.9542 343.974 24.2164 344.898 24.4161C345.821 24.5908 346.795 24.6782 347.818 24.6782C349.941 24.6782 351.588 24.3037 352.762 23.5548C353.96 22.7809 354.559 21.62 354.559 20.0721C354.559 19.2483 354.384 18.5617 354.035 18.0125C353.71 17.4383 353.211 16.9515 352.537 16.552C351.863 16.1276 351.027 15.7656 350.028 15.466C349.029 15.1664 347.868 14.8669 346.545 14.5673C345.147 14.2427 343.924 13.9057 342.875 13.5562C341.827 13.2067 340.941 12.7698 340.217 12.2455C339.493 11.7212 338.943 11.0971 338.569 10.3731C338.219 9.62413 338.045 8.7129 338.045 7.63939C338.045 6.41609 338.269 5.3301 338.719 4.38141C339.193 3.40777 339.855 2.60888 340.703 1.98474C341.552 1.33564 342.551 0.848821 343.699 0.524272C344.848 0.174757 346.121 0 347.519 0C349.291 0 350.864 0.274619 352.237 0.823856C353.635 1.34813 354.896 2.09709 356.02 3.07074L354.746 5.16782Z" fill="white"/>
<path d="M312.9 5.05546V26.7753H310.278V0.187225H312.3L329.901 22.319V0.224673H332.522V26.7753H330.238L312.9 5.05546Z" fill="white"/>
<path d="M300.989 26.7753V0.187225H303.611V26.7753H300.989Z" fill="white"/>
<path d="M283.577 26.9626C281.73 26.9626 280.032 26.5881 278.484 25.8391C276.961 25.0652 275.651 24.0541 274.552 22.8058C273.454 21.5326 272.605 20.0846 272.006 18.4619C271.407 16.8391 271.107 15.1789 271.107 13.4813C271.107 11.7087 271.419 10.0111 272.043 8.38835C272.692 6.7656 273.579 5.3301 274.702 4.08183C275.825 2.83356 277.149 1.84743 278.671 1.12344C280.194 0.37448 281.842 0 283.615 0C285.462 0 287.147 0.399445 288.67 1.19834C290.218 1.97226 291.529 2.99584 292.602 4.26907C293.701 5.5423 294.549 6.99029 295.149 8.61304C295.748 10.2108 296.047 11.846 296.047 13.5187C296.047 15.2913 295.723 16.9889 295.074 18.6117C294.45 20.2344 293.576 21.6699 292.452 22.9182C291.354 24.1415 290.043 25.1276 288.52 25.8766C286.997 26.6006 285.35 26.9626 283.577 26.9626ZM273.728 13.4813C273.728 14.9293 273.965 16.3273 274.44 17.6754C274.914 18.9986 275.588 20.1845 276.462 21.233C277.336 22.2566 278.372 23.0804 279.57 23.7046C280.769 24.3037 282.104 24.6033 283.577 24.6033C285.075 24.6033 286.436 24.2788 287.659 23.6297C288.882 22.9806 289.918 22.1318 290.767 21.0832C291.616 20.0347 292.265 18.8488 292.714 17.5257C293.189 16.2025 293.426 14.8544 293.426 13.4813C293.426 12.0333 293.176 10.6477 292.677 9.32455C292.203 7.97642 291.529 6.79057 290.655 5.76699C289.781 4.74341 288.745 3.93204 287.547 3.33287C286.348 2.70874 285.025 2.39667 283.577 2.39667C282.079 2.39667 280.719 2.72122 279.495 3.37032C278.272 3.99445 277.236 4.83079 276.387 5.87933C275.538 6.92788 274.877 8.11373 274.402 9.43689C273.953 10.7601 273.728 12.1082 273.728 13.4813Z" fill="white"/>
<path d="M250.23 26.7753V0.224673H252.851V15.6532L267.493 0.187225H270.377L259.517 11.871L270.939 26.7753H268.055L257.869 13.4064L252.851 18.6116V26.7753H250.23Z" fill="white"/>
<path d="M240.941 26.7753V0.187225H243.562V26.7753H240.941Z" fill="white"/>
<path d="M235.997 19.9223C235.997 20.9209 235.798 21.8446 235.398 22.6935C234.999 23.5173 234.462 24.2413 233.788 24.8654C233.114 25.4646 232.327 25.939 231.429 26.2885C230.53 26.613 229.569 26.7753 228.545 26.7753H216V0.187225H228.807C229.731 0.187225 230.567 0.386948 231.316 0.786394C232.065 1.18584 232.702 1.71011 233.226 2.35921C233.75 2.98334 234.15 3.70734 234.424 4.53119C234.724 5.33008 234.874 6.14146 234.874 6.96531C234.874 8.31344 234.537 9.54922 233.863 10.6727C233.189 11.7711 232.252 12.595 231.054 13.1442C232.577 13.5936 233.775 14.4299 234.649 15.6532C235.548 16.8765 235.997 18.2996 235.997 19.9223ZM233.376 19.4729C233.376 18.8238 233.264 18.1997 233.039 17.6005C232.814 16.9764 232.49 16.4397 232.065 15.9903C231.666 15.5159 231.179 15.1415 230.605 14.8668C230.055 14.5673 229.456 14.4175 228.807 14.4175H218.621V24.491H228.545C229.219 24.491 229.843 24.3537 230.417 24.079C231.017 23.8044 231.528 23.4424 231.953 22.9931C232.402 22.5187 232.752 21.982 233.001 21.3828C233.251 20.7587 233.376 20.122 233.376 19.4729ZM218.621 2.47155V12.2829H227.759C228.408 12.2829 229.007 12.1456 229.556 11.871C230.13 11.5964 230.617 11.2344 231.017 10.785C231.416 10.3356 231.728 9.82384 231.953 9.24964C232.178 8.65047 232.29 8.02634 232.29 7.37724C232.29 6.70318 232.178 6.06656 231.953 5.46739C231.753 4.86822 231.454 4.35643 231.054 3.93202C230.68 3.48265 230.23 3.13313 229.706 2.88348C229.182 2.60886 228.607 2.47155 227.983 2.47155H218.621Z" fill="white"/>
</svg>
