<?xml version="1.0" encoding="utf-8"?>
<svg xmlns="http://www.w3.org/2000/svg" xmlns:xlink="http://www.w3.org/1999/xlink">
    <symbol id="download" viewBox="0 0 44 44" fill="none" xmlns="http://www.w3.org/2000/svg">
        <path fill-rule="evenodd" clip-rule="evenodd"
            d="M22.1047 1.48096L39.6916 11.7427V32.2624L22.1047 42.5187L4.51782 32.2624V11.7427L22.1047 1.48096ZM6.90116 13.1114V30.8934L22.1047 39.7597L37.3082 30.8933V13.1114L22.1047 4.24034L6.90116 13.1114Z"
            fill="currentColor" />
        <path fill-rule="evenodd" clip-rule="evenodd"
            d="M22 13.6667C22.4602 13.6667 22.8333 14.0398 22.8333 14.5001V22.4882L25.5774 19.7442C25.9028 19.4187 26.4304 19.4187 26.7559 19.7442C27.0813 20.0696 27.0813 20.5972 26.7559 20.9227L22.5892 25.0893C22.2638 25.4148 21.7361 25.4148 21.4107 25.0893L17.244 20.9227C16.9186 20.5972 16.9186 20.0696 17.244 19.7442C17.5695 19.4187 18.0971 19.4187 18.4225 19.7442L21.1666 22.4882V14.5001C21.1666 14.0398 21.5397 13.6667 22 13.6667ZM14.5 23.6667C14.9602 23.6667 15.3333 24.0398 15.3333 24.5001V27.8334C15.3333 28.0544 15.4211 28.2664 15.5774 28.4227C15.7337 28.579 15.9456 28.6667 16.1666 28.6667H27.8333C28.0543 28.6667 28.2663 28.579 28.4225 28.4227C28.5788 28.2664 28.6666 28.0544 28.6666 27.8334V24.5001C28.6666 24.0398 29.0397 23.6667 29.5 23.6667C29.9602 23.6667 30.3333 24.0398 30.3333 24.5001V27.8334C30.3333 28.4965 30.0699 29.1323 29.6011 29.6012C29.1322 30.07 28.4963 30.3334 27.8333 30.3334H16.1666C15.5036 30.3334 14.8677 30.07 14.3989 29.6012C13.93 29.1323 13.6666 28.4965 13.6666 27.8334V24.5001C13.6666 24.0398 14.0397 23.6667 14.5 23.6667Z"
            fill="currentColor" />
    </symbol>

    <symbol id="arrow-left" viewBox="0 0 24 24" fill="none" xmlns="http://www.w3.org/2000/svg">
        <g transform="rotate(90 12 12)">
            <path fill-rule="evenodd" clip-rule="evenodd"
                d="M12 4C12.5523 4 13 4.44772 13 5V16.5858L18.2929 11.2929C18.6834 10.9024 19.3166 10.9024 19.7071 11.2929C20.0976 11.6834 20.0976 12.3166 19.7071 12.7071L12.7071 19.7071C12.3166 20.0976 11.6834 20.0976 11.2929 19.7071L4.29289 12.7071C3.90237 12.3166 3.90237 11.6834 4.29289 11.2929C4.68342 10.9024 5.31658 10.9024 5.70711 11.2929L11 16.5858V5C11 4.44772 11.4477 4 12 4Z"
                fill="currentColor" />
        </g>
    </symbol>

    <symbol id="jakala-arrow" viewBox="0 0 44 44" fill="none" xmlns="http://www.w3.org/2000/svg">
        <path fill-rule="evenodd" clip-rule="evenodd"
            d="M22.1047 1.48083L39.6915 11.7426V32.2623L22.1047 42.5186L4.51781 32.2623V11.7426L22.1047 1.48083ZM6.90114 13.1113V30.8932L22.1047 39.7596L37.3082 30.8932V13.1113L22.1047 4.24021L6.90114 13.1113Z"
            fill="currentColor" />
        <path fill-rule="evenodd" clip-rule="evenodd"
            d="M23.6394 21.658L19.324 17.3426L21.0093 15.6573L27.01 21.658L21.0093 27.6587L19.324 25.9734L23.6394 21.658Z"
            fill="currentColor" />
    </symbol>

    <symbol id="item-arrow" viewBox="0 0 24 24" fill="none" xmlns="http://www.w3.org/2000/svg">
        <path d="M15.5294 5.49902H17.6471V7.59902H19.7647V9.69902H21.8824V11.099H24V13.199H21.8824V15.299H19.7647V17.399H17.6471V19.499H15.5294V15.299H0V9.69902H15.5294V5.49902Z" fill="white"/>
    </symbol>
    
    <symbol id="arrow-down" viewBox="0 0 24 24" fill="none" xmlns="http://www.w3.org/2000/svg">
        <path fill-rule="evenodd" clip-rule="evenodd"
            d="M12 4C12.5523 4 13 4.44772 13 5V16.5858L18.2929 11.2929C18.6834 10.9024 19.3166 10.9024 19.7071 11.2929C20.0976 11.6834 20.0976 12.3166 19.7071 12.7071L12.7071 19.7071C12.3166 20.0976 11.6834 20.0976 11.2929 19.7071L4.29289 12.7071C3.90237 12.3166 3.90237 11.6834 4.29289 11.2929C4.68342 10.9024 5.31658 10.9024 5.70711 11.2929L11 16.5858V5C11 4.44772 11.4477 4 12 4Z"
            fill="currentColor" />
    </symbol>

    <symbol id="speaker" width="24" height="24" viewBox="0 0 24 24" fill="none" xmlns="http://www.w3.org/2000/svg">
        <path fill-rule="evenodd" clip-rule="evenodd" d="M18.363 4.22278C18.7536 3.83231 19.3867 3.83241 19.7772 4.22299C21.8394 6.2858 22.9979 9.08319 22.9979 12C22.9979 14.9168 21.8394 17.7142 19.7772 19.777C19.3867 20.1676 18.7536 20.1677 18.363 19.7772C17.9724 19.3867 17.9723 18.7536 18.3628 18.363C20.05 16.6752 20.9979 14.3865 20.9979 12C20.9979 9.61352 20.05 7.32474 18.3628 5.63699C17.9723 5.24641 17.9724 4.61324 18.363 4.22278ZM11.4332 4.09869C11.7797 4.26521 12 4.61559 12 4.99999V19C12 19.3844 11.7797 19.7348 11.4332 19.9013C11.0867 20.0678 10.6755 20.021 10.3753 19.7809L5.64922 16H2C1.44772 16 1 15.5523 1 15V8.99999C1 8.44771 1.44772 7.99999 2 7.99999H5.64922L10.3753 4.21912C10.6755 3.97899 11.0867 3.93217 11.4332 4.09869ZM10 7.08062L6.62469 9.78086C6.44738 9.92271 6.22707 9.99999 6 9.99999H3V14H6C6.22707 14 6.44738 14.0773 6.62469 14.2191L10 16.9194V7.08062ZM14.833 7.75278C15.2236 7.36231 15.8567 7.36241 16.2472 7.75299C17.372 8.87816 18.0039 10.404 18.0039 11.995C18.0039 13.586 17.372 15.1118 16.2472 16.237C15.8567 16.6276 15.2236 16.6277 14.833 16.2372C14.4424 15.8467 14.4423 15.2136 14.8328 14.823C15.5827 14.0729 16.0039 13.0556 16.0039 11.995C16.0039 10.9343 15.5827 9.9171 14.8328 9.16699C14.4423 8.77641 14.4424 8.14324 14.833 7.75278Z" 
        fill="currentColor"/>
    </symbol>
</svg>